<svg width="40" height="40" viewBox="0 0 40 40" fill="none" xmlns="http://www.w3.org/2000/svg">
  <!-- Brain/Neural network base -->
  <path d="M12 16c0-4.4 3.6-8 8-8s8 3.6 8 8c0 2.2-0.9 4.2-2.3 5.7" stroke="currentColor" stroke-width="2.5" fill="none" stroke-linecap="round"/>
  <path d="M10.3 21.7c-1.4-1.5-2.3-3.5-2.3-5.7 0-4.4 3.6-8 8-8" stroke="currentColor" stroke-width="2.5" fill="none" stroke-linecap="round" opacity="0.7"/>
  
  <!-- Shopping cart integrated -->
  <rect x="14" y="26" width="12" height="8" rx="1" stroke="currentColor" stroke-width="2" fill="none"/>
  <path d="M16 26v-2a2 2 0 012-2h4a2 2 0 012 2v2" stroke="currentColor" stroke-width="2" fill="none"/>
  
  <!-- AI nodes/connections -->
  <circle cx="20" cy="16" r="2" fill="currentColor"/>
  <circle cx="15" cy="19" r="1.5" fill="currentColor" opacity="0.8"/>
  <circle cx="25" cy="19" r="1.5" fill="currentColor" opacity="0.8"/>
  
  <!-- Neural connections -->
  <path d="M18.5 17.5L16.5 18.5" stroke="currentColor" stroke-width="1.5" opacity="0.6" stroke-linecap="round"/>
  <path d="M21.5 17.5L23.5 18.5" stroke="currentColor" stroke-width="1.5" opacity="0.6" stroke-linecap="round"/>
  <path d="M20 18v6" stroke="currentColor" stroke-width="1.5" opacity="0.4" stroke-linecap="round"/>
</svg>