<svg width="40" height="40" viewBox="0 0 40 40" fill="none" xmlns="http://www.w3.org/2000/svg">
  <!-- Modern AI shopping assistant logo -->
  <!-- Shopping bag base -->
  <path d="M8 15h24v16a3 3 0 01-3 3H11a3 3 0 01-3-3V15z" stroke="currentColor" stroke-width="2.5" fill="none" stroke-linejoin="round"/>
  <path d="M14 15V11a6 6 0 0112 0v4" stroke="currentColor" stroke-width="2.5" fill="none" stroke-linecap="round"/>
  
  <!-- AI brain element inside bag -->
  <circle cx="20" cy="23" r="3" fill="currentColor" opacity="0.9"/>
  
  <!-- Neural network connections -->
  <circle cx="16" cy="20" r="1.5" fill="currentColor" opacity="0.7"/>
  <circle cx="24" cy="20" r="1.5" fill="currentColor" opacity="0.7"/>
  <circle cx="16" cy="26" r="1.5" fill="currentColor" opacity="0.7"/>
  <circle cx="24" cy="26" r="1.5" fill="currentColor" opacity="0.7"/>
  
  <!-- Connection lines -->
  <path d="M17.2 21.2L18.8 21.8" stroke="currentColor" stroke-width="1.5" opacity="0.6" stroke-linecap="round"/>
  <path d="M22.8 21.2L21.2 21.8" stroke="currentColor" stroke-width="1.5" opacity="0.6" stroke-linecap="round"/>
  <path d="M17.2 24.8L18.8 24.2" stroke="currentColor" stroke-width="1.5" opacity="0.6" stroke-linecap="round"/>
  <path d="M22.8 24.8L21.2 24.2" stroke="currentColor" stroke-width="1.5" opacity="0.6" stroke-linecap="round"/>
  
  <!-- AI signal waves emanating from top -->
  <path d="M17 7c1.5-2 4.5-2 6 0" stroke="currentColor" stroke-width="1.5" fill="none" opacity="0.5" stroke-linecap="round"/>
  <path d="M15 5c2.5-3 7.5-3 10 0" stroke="currentColor" stroke-width="1.2" fill="none" opacity="0.3" stroke-linecap="round"/>
</svg>